# xmcd CD database file
#
# Track frame offsets:
#	150
#	17690
#	36797
#	55917
#	76572
#	98790
#	120410
#	140185
#	159395
#	178502
#	196995
#
# Disc length: 2863 seconds
#
# Revision: 1
# Processed by: cddbd v1.4PL0 Copyright (c) Steve Scherf et al.
# Submitted via: NeoAudio 9.9.9
#
DISCID=830b2d0b
DTITLE=Rubby Pérez - Vuelve el Merengue
DYEAR=1999
DGENRE=Merengue
TTITLE0=Enamorao
TTITLE1=Weepa
TTITLE2=Las Mujeres
TTITLE3=Adicto
TTITLE4=Tu vas a Volar
TTITLE5=Sin Verte
TTITLE6=Sin Ti
TTITLE7=Volveré
TTITLE8=Para qué no Me Olvides
TTITLE9=Yo Sé que es Mentira
TTITLE10=El Toro y la Luna
EXTD=YEAR: 1999
EXTT0=
EXTT1=
EXTT2=
EXTT3=
EXTT4=
EXTT5=
EXTT6=
EXTT7=
EXTT8=
EXTT9=
EXTT10=
PLAYORDER=
